<?xml version="1.0" encoding="UTF-8" standalone="no"?>
<!DOCTYPE svg PUBLIC "-//W3C//DTD SVG 1.1//EN"
 "http://www.w3.org/Graphics/SVG/1.1/DTD/svg11.dtd">
<!-- Generated by graphviz version 2.40.1 (20161225.0304)
 -->
<!-- Title: G Pages: 1 -->
<svg width="394pt" height="116pt"
 viewBox="0.00 0.00 393.58 116.00" xmlns="http://www.w3.org/2000/svg" xmlns:xlink="http://www.w3.org/1999/xlink">
<g id="graph0" class="graph" transform="scale(1 1) rotate(0) translate(4 112)">
<title>G</title><style>.edge>path:hover{stroke-width:8}</style>
<polygon fill="#ffffff" stroke="transparent" points="-4,4 -4,-112 389.5829,-112 389.5829,4 -4,4"/>
<!-- PySimpleGUI -->
<g id="node1" class="node">
<title>PySimpleGUI</title><style>.edge>path:hover{stroke-width:8}</style>
<ellipse fill="#b65353" stroke="#000000" cx="45.327" cy="-90" rx="45.1548" ry="18"/>
<text text-anchor="middle" x="45.327" y="-87.5" font-family="Helvetica,sans-Serif" font-size="10.00" fill="#ffffff">PySimpleGUI</text>
</g>
<!-- bookgui -->
<g id="node3" class="node">
<title>bookgui</title><style>.edge>path:hover{stroke-width:8}</style>
<ellipse fill="#8b9d43" stroke="#000000" cx="264.327" cy="-18" rx="29.3664" ry="18"/>
<text text-anchor="middle" x="264.327" y="-15.5" font-family="Helvetica,sans-Serif" font-size="10.00" fill="#000000">bookgui</text>
</g>
<!-- PySimpleGUI&#45;&gt;bookgui -->
<g id="edge1" class="edge">
<title>PySimpleGUI&#45;&gt;bookgui</title><style>.edge>path:hover{stroke-width:8}</style>
<path fill="none" stroke="#000000" d="M80.5132,-78.432C121.1722,-65.0646 187.7138,-43.1879 228.6005,-29.7457"/>
<polygon fill="#b65353" stroke="#000000" points="229.7554,-33.0504 238.162,-26.6022 227.5691,-26.4006 229.7554,-33.0504"/>
</g>
<!-- openlibraryapi -->
<g id="node2" class="node">
<title>openlibraryapi</title><style>.edge>path:hover{stroke-width:8}</style>
<ellipse fill="#a253b6" stroke="#000000" cx="154.327" cy="-90" rx="45.1548" ry="18"/>
<text text-anchor="middle" x="154.327" y="-87.5" font-family="Helvetica,sans-Serif" font-size="10.00" fill="#ffffff">openlibraryapi</text>
</g>
<!-- openlibraryapi&#45;&gt;bookgui -->
<g id="edge4" class="edge">
<title>openlibraryapi&#45;&gt;bookgui</title><style>.edge>path:hover{stroke-width:8}</style>
<path fill="none" stroke="#000000" d="M177.9248,-74.5542C194.851,-63.4752 217.7445,-48.4904 235.7135,-36.7289"/>
<polygon fill="#a253b6" stroke="#000000" points="237.6411,-39.6503 244.0913,-31.2452 233.8074,-33.7934 237.6411,-39.6503"/>
</g>
<!-- googlebookapi -->
<g id="node4" class="node">
<title>googlebookapi</title><style>.edge>path:hover{stroke-width:8}</style>
<ellipse fill="#537bb6" stroke="#000000" cx="264.327" cy="-90" rx="46.5087" ry="18"/>
<text text-anchor="middle" x="264.327" y="-87.5" font-family="Helvetica,sans-Serif" font-size="10.00" fill="#ffffff">googlebookapi</text>
</g>
<!-- googlebookapi&#45;&gt;bookgui -->
<g id="edge3" class="edge">
<title>googlebookapi&#45;&gt;bookgui</title><style>.edge>path:hover{stroke-width:8}</style>
<path fill="none" stroke="#000000" d="M264.327,-71.8314C264.327,-64.131 264.327,-54.9743 264.327,-46.4166"/>
<polygon fill="#537bb6" stroke="#000000" points="267.8271,-46.4132 264.327,-36.4133 260.8271,-46.4133 267.8271,-46.4132"/>
</g>
<!-- citation -->
<g id="node5" class="node">
<title>citation</title><style>.edge>path:hover{stroke-width:8}</style>
<ellipse fill="#53b67b" stroke="#000000" cx="357.327" cy="-90" rx="28.0137" ry="18"/>
<text text-anchor="middle" x="357.327" y="-87.5" font-family="Helvetica,sans-Serif" font-size="10.00" fill="#000000">citation</text>
</g>
<!-- citation&#45;&gt;bookgui -->
<g id="edge2" class="edge">
<title>citation&#45;&gt;bookgui</title><style>.edge>path:hover{stroke-width:8}</style>
<path fill="none" stroke="#000000" d="M338.9532,-75.7751C325.1966,-65.1248 306.1792,-50.4017 290.7855,-38.484"/>
<polygon fill="#53b67b" stroke="#000000" points="292.7126,-35.5496 282.6627,-32.1953 288.4273,-41.0846 292.7126,-35.5496"/>
</g>
</g>
</svg>
